  0
SECTION
  2
HEADER
  9
$ACADVER
  1
AC1014
  9
$ACADMAINTVER
 70
     8
  9
$DWGCODEPAGE
  3
ANSI_1252
  9
$INSBASE
 10
0.0
 20
0.0
 30
0.0
  9
$EXTMIN
 10
-3.005129
 20
12.785235
 30
-0.001526
  9
$EXTMAX
 10
12.331932
 20
22.592204
 30
0.0
  9
$LIMMIN
 10
0.0
 20
0.0
  9
$LIMMAX
 10
12.0
 20
9.0
  9
$ORTHOMODE
 70
     1
  9
$REGENMODE
 70
     1
  9
$FILLMODE
 70
     1
  9
$QTEXTMODE
 70
     0
  9
$MIRRTEXT
 70
     1
  9
$DRAGMODE
 70
     2
  9
$LTSCALE
 40
1.0
  9
$OSMODE
 70
     0
  9
$ATTMODE
 70
     1
  9
$TEXTSIZE
 40
0.25
  9
$TRACEWID
 40
0.05
  9
$TEXTSTYLE
  7
STANDARD
  9
$CLAYER
  8
0
  9
$CELTYPE
  6
BYLAYER
  9
$CECOLOR
 62
   256
  9
$CELTSCALE
 40
1.0
  9
$DELOBJ
 70
     1
  9
$DISPSILH
 70
     0
  9
$DIMSCALE
 40
1.0
  9
$DIMASZ
 40
0.18
  9
$DIMEXO
 40
0.0625
  9
$DIMDLI
 40
0.38
  9
$DIMRND
 40
0.0
  9
$DIMDLE
 40
0.0
  9
$DIMEXE
 40
0.18
  9
$DIMTP
 40
0.0
  9
$DIMTM
 40
0.0
  9
$DIMTXT
 40
0.18
  9
$DIMCEN
 40
0.09
  9
$DIMTSZ
 40
0.0
  9
$DIMTOL
 70
     0
  9
$DIMLIM
 70
     0
  9
$DIMTIH
 70
     1
  9
$DIMTOH
 70
     1
  9
$DIMSE1
 70
     0
  9
$DIMSE2
 70
     0
  9
$DIMTAD
 70
     0
  9
$DIMZIN
 70
     0
  9
$DIMBLK
  1

  9
$DIMASO
 70
     1
  9
$DIMSHO
 70
     1
  9
$DIMPOST
  1

  9
$DIMAPOST
  1

  9
$DIMALT
 70
     0
  9
$DIMALTD
 70
     2
  9
$DIMALTF
 40
25.4
  9
$DIMLFAC
 40
1.0
  9
$DIMTOFL
 70
     0
  9
$DIMTVP
 40
0.0
  9
$DIMTIX
 70
     0
  9
$DIMSOXD
 70
     0
  9
$DIMSAH
 70
     0
  9
$DIMBLK1
  1

  9
$DIMBLK2
  1

  9
$DIMSTYLE
  2
STANDARD
  9
$DIMCLRD
 70
     0
  9
$DIMCLRE
 70
     0
  9
$DIMCLRT
 70
     0
  9
$DIMTFAC
 40
1.0
  9
$DIMGAP
 40
0.09
  9
$DIMJUST
 70
     0
  9
$DIMSD1
 70
     0
  9
$DIMSD2
 70
     0
  9
$DIMTOLJ
 70
     1
  9
$DIMTZIN
 70
     0
  9
$DIMALTZ
 70
     0
  9
$DIMALTTZ
 70
     0
  9
$DIMFIT
 70
     3
  9
$DIMUPT
 70
     0
  9
$DIMUNIT
 70
     2
  9
$DIMDEC
 70
     4
  9
$DIMTDEC
 70
     4
  9
$DIMALTU
 70
     2
  9
$DIMALTTD
 70
     2
  9
$DIMTXSTY
  7
STANDARD
  9
$DIMAUNIT
 70
     0
  9
$LUNITS
 70
     2
  9
$LUPREC
 70
     4
  9
$SKETCHINC
 40
0.1
  9
$FILLETRAD
 40
0.5
  9
$AUNITS
 70
     0
  9
$AUPREC
 70
     0
  9
$MENU
  1
.
  9
$ELEVATION
 40
0.0
  9
$PELEVATION
 40
0.0
  9
$THICKNESS
 40
0.0
  9
$LIMCHECK
 70
     0
  9
$BLIPMODE
 70
     0
  9
$CHAMFERA
 40
0.5
  9
$CHAMFERB
 40
0.5
  9
$CHAMFERC
 40
1.0
  9
$CHAMFERD
 40
0.0
  9
$SKPOLY
 70
     0
  9
$TDCREATE
 40
2457467.701095254
  9
$TDUPDATE
 40
2457517.596293530
  9
$TDINDWG
 40
0.3010835532
  9
$TDUSRTIMER
 40
0.3010835532
  9
$USRTIMER
 70
     1
  9
$ANGBASE
 50
0.0
  9
$ANGDIR
 70
     0
  9
$PDMODE
 70
     0
  9
$PDSIZE
 40
0.0
  9
$PLINEWID
 40
0.0
  9
$COORDS
 70
     1
  9
$SPLFRAME
 70
     0
  9
$SPLINETYPE
 70
     6
  9
$SPLINESEGS
 70
     8
  9
$ATTDIA
 70
     0
  9
$ATTREQ
 70
     1
  9
$HANDLING
 70
     1
  9
$HANDSEED
  5
B14
  9
$SURFTAB1
 70
     6
  9
$SURFTAB2
 70
     6
  9
$SURFTYPE
 70
     6
  9
$SURFU
 70
     6
  9
$SURFV
 70
     6
  9
$UCSNAME
  2

  9
$UCSORG
 10
0.0
 20
0.0
 30
0.0
  9
$UCSXDIR
 10
1.0
 20
0.0
 30
0.0
  9
$UCSYDIR
 10
0.0
 20
1.0
 30
0.0
  9
$PUCSNAME
  2

  9
$PUCSORG
 10
0.0
 20
0.0
 30
0.0
  9
$PUCSXDIR
 10
1.0
 20
0.0
 30
0.0
  9
$PUCSYDIR
 10
0.0
 20
1.0
 30
0.0
  9
$USERI1
 70
     0
  9
$USERI2
 70
     0
  9
$USERI3
 70
     0
  9
$USERI4
 70
     0
  9
$USERI5
 70
     0
  9
$USERR1
 40
0.0
  9
$USERR2
 40
0.0
  9
$USERR3
 40
0.0
  9
$USERR4
 40
0.0
  9
$USERR5
 40
0.0
  9
$WORLDVIEW
 70
     1
  9
$SHADEDGE
 70
     3
  9
$SHADEDIF
 70
    70
  9
$TILEMODE
 70
     1
  9
$MAXACTVP
 70
    48
  9
$PINSBASE
 10
0.0
 20
0.0
 30
0.0
  9
$PLIMCHECK
 70
     0
  9
$PEXTMIN
 10
1.000000E+20
 20
1.000000E+20
 30
1.000000E+20
  9
$PEXTMAX
 10
-1.000000E+20
 20
-1.000000E+20
 30
-1.000000E+20
  9
$PLIMMIN
 10
0.0
 20
0.0
  9
$PLIMMAX
 10
12.0
 20
9.0
  9
$UNITMODE
 70
     0
  9
$VISRETAIN
 70
     1
  9
$PLINEGEN
 70
     0
  9
$PSLTSCALE
 70
     1
  9
$TREEDEPTH
 70
  3020
  9
$PICKSTYLE
 70
     1
  9
$CMLSTYLE
  2
STANDARD
  9
$CMLJUST
 70
     0
  9
$CMLSCALE
 40
1.0
  9
$PROXYGRAPHICS
 70
     1
  9
$MEASUREMENT
 70
     0
  0
ENDSEC
  0
SECTION
  2
CLASSES
  0
ENDSEC
  0
SECTION
  2
TABLES
  0
TABLE
  2
VPORT
  5
8
100
AcDbSymbolTable
 70
     4
  0
VPORT
  5
B13
100
AcDbSymbolTableRecord
100
AcDbViewportTableRecord
  2
*ACTIVE
 70
     0
 10
0.0
 20
0.0
 11
1.0
 21
1.0
 12
5.450219
 22
18.429808
 13
0.0
 23
0.0
 14
0.5
 24
0.5
 15
0.5
 25
0.5
 16
0.0
 26
0.0
 36
1.0
 17
0.0
 27
0.0
 37
0.0
 40
13.211495
 41
1.880567
 42
50.0
 43
0.0
 44
0.0
 50
0.0
 51
0.0
 71
     0
 72
   100
 73
     1
 74
     1
 75
     0
 76
     0
 77
     0
 78
     0
  0
ENDTAB
  0
TABLE
  2
LTYPE
  5
5
100
AcDbSymbolTable
 70
     1
  0
LTYPE
  5
12
100
AcDbSymbolTableRecord
100
AcDbLinetypeTableRecord
  2
BYBLOCK
 70
     0
  3

 72
    65
 73
     0
 40
0.0
  0
LTYPE
  5
13
100
AcDbSymbolTableRecord
100
AcDbLinetypeTableRecord
  2
BYLAYER
 70
     0
  3

 72
    65
 73
     0
 40
0.0
  0
LTYPE
  5
14
100
AcDbSymbolTableRecord
100
AcDbLinetypeTableRecord
  2
CONTINUOUS
 70
     0
  3
Solid line
 72
    65
 73
     0
 40
0.0
  0
ENDTAB
  0
TABLE
  2
LAYER
  5
2
100
AcDbSymbolTable
 70
     1
  0
LAYER
  5
E
100
AcDbSymbolTableRecord
100
AcDbLayerTableRecord
  2
0
 70
     0
 62
     7
  6
CONTINUOUS
  0
ENDTAB
  0
TABLE
  2
STYLE
  5
3
100
AcDbSymbolTable
 70
     1
  0
STYLE
  5
F
100
AcDbSymbolTableRecord
100
AcDbTextStyleTableRecord
  2
STANDARD
 70
     0
 40
0.0
 41
1.0
 50
0.0
 71
     0
 42
0.25
  3
txt
  4

  0
ENDTAB
  0
TABLE
  2
VIEW
  5
6
100
AcDbSymbolTable
 70
     0
  0
ENDTAB
  0
TABLE
  2
UCS
  5
7
100
AcDbSymbolTable
 70
     0
  0
ENDTAB
  0
TABLE
  2
APPID
  5
9
100
AcDbSymbolTable
 70
     1
  0
APPID
  5
10
100
AcDbSymbolTableRecord
100
AcDbRegAppTableRecord
  2
ACAD
 70
     0
  0
ENDTAB
  0
TABLE
  2
DIMSTYLE
  5
A
100
AcDbSymbolTable
 70
     1
  0
DIMSTYLE
105
1D
100
AcDbSymbolTableRecord
100
AcDbDimStyleTableRecord
  2
STANDARD
 70
     0
  3

  4

  5

  6

  7

 40
1.0
 41
0.18
 42
0.0625
 43
0.38
 44
0.18
 45
0.0
 46
0.0
 47
0.0
 48
0.0
140
0.18
141
0.09
142
0.0
143
25.4
144
1.0
145
0.0
146
1.0
147
0.09
 71
     0
 72
     0
 73
     1
 74
     1
 75
     0
 76
     0
 77
     0
 78
     0
170
     0
171
     2
172
     0
173
     0
174
     0
175
     0
176
     0
177
     0
178
     0
270
     2
271
     4
272
     4
273
     2
274
     2
340
F
275
     0
280
     0
281
     0
282
     0
283
     1
284
     0
285
     0
286
     0
287
     3
288
     0
  0
ENDTAB
  0
TABLE
  2
BLOCK_RECORD
  5
1
100
AcDbSymbolTable
 70
     0
  0
BLOCK_RECORD
  5
18
100
AcDbSymbolTableRecord
100
AcDbBlockTableRecord
  2
*MODEL_SPACE
  0
BLOCK_RECORD
  5
15
100
AcDbSymbolTableRecord
100
AcDbBlockTableRecord
  2
*PAPER_SPACE
  0
ENDTAB
  0
ENDSEC
  0
SECTION
  2
BLOCKS
  0
BLOCK
  5
19
100
AcDbEntity
  8
0
100
AcDbBlockBegin
  2
*MODEL_SPACE
 70
     0
 10
0.0
 20
0.0
 30
0.0
  3
*MODEL_SPACE
  1

  0
ENDBLK
  5
1A
100
AcDbEntity
  8
0
100
AcDbBlockEnd
  0
BLOCK
  5
16
100
AcDbEntity
 67
     1
  8
0
100
AcDbBlockBegin
  2
*PAPER_SPACE
 70
     0
 10
0.0
 20
0.0
 30
0.0
  3
*PAPER_SPACE
  1

  0
ENDBLK
  5
17
100
AcDbEntity
 67
     1
  8
0
100
AcDbBlockEnd
  0
ENDSEC
  0
SECTION
  2
ENTITIES
  0
ARC
  5
96D
100
AcDbEntity
  8
0
 62
     7
100
AcDbCircle
 10
6.103485
 20
17.160482
 30
0.0
 40
4.0
100
AcDbArc
 50
271.691904
 51
275.849488
  0
LINE
  5
97B
100
AcDbEntity
  8
0
 62
     7
100
AcDbLine
 10
7.739469
 20
17.51379
 30
0.0
 11
8.133387
 21
18.196076
 31
0.0
  0
LINE
  5
97E
100
AcDbEntity
  8
0
 62
     7
100
AcDbLine
 10
7.776269
 20
17.105129
 30
0.0
 11
8.542498
 21
18.432276
 31
0.0
  0
LINE
  5
97F
100
AcDbEntity
  8
0
 62
     7
100
AcDbLine
 10
7.707048
 20
16.371034
 30
0.0
 11
9.074411
 21
18.739376
 31
0.0
  0
LINE
  5
984
100
AcDbEntity
  8
0
 62
     7
100
AcDbLine
 10
7.608388
 20
16.427995
 30
0.0
 11
7.707048
 21
16.371034
 31
0.0
  0
LINE
  5
985
100
AcDbEntity
  8
0
 62
     7
100
AcDbLine
 10
7.911603
 20
16.252934
 30
0.0
 11
9.483521
 21
18.975576
 31
0.0
  0
LINE
  5
986
100
AcDbEntity
  8
0
 62
     7
100
AcDbLine
 10
8.177559
 20
16.099384
 30
0.0
 11
9.745334
 21
18.81485
 31
0.0
  0
LINE
  5
988
100
AcDbEntity
  8
0
 62
     7
100
AcDbLine
 10
8.382114
 20
15.981284
 30
0.0
 11
9.858584
 21
18.538605
 31
0.0
  0
LINE
  5
989
100
AcDbEntity
  8
0
 62
     7
100
AcDbLine
 10
8.648071
 20
15.827734
 30
0.0
 11
9.982112
 21
18.138362
 31
0.0
  0
LINE
  5
98C
100
AcDbEntity
  8
0
 62
     7
100
AcDbLine
 10
8.852626
 20
15.709634
 30
0.0
 11
10.053656
 21
17.78988
 31
0.0
  0
LINE
  5
98D
100
AcDbEntity
  8
0
 62
     7
100
AcDbLine
 10
9.118582
 20
15.556084
 30
0.0
 11
10.10225
 21
17.259847
 31
0.0
  0
LINE
  5
990
100
AcDbEntity
  8
0
 62
     7
100
AcDbLine
 10
7.911603
 20
16.252934
 30
0.0
 11
8.177559
 21
16.099384
 31
0.0
  0
LINE
  5
991
100
AcDbEntity
  8
0
 62
     7
100
AcDbLine
 10
8.382114
 20
15.981284
 30
0.0
 11
8.648071
 21
15.827734
 31
0.0
  0
LINE
  5
992
100
AcDbEntity
  8
0
 62
     7
100
AcDbLine
 10
8.852626
 20
15.709634
 30
0.0
 11
9.118582
 21
15.556084
 31
0.0
  0
LINE
  5
995
100
AcDbEntity
  8
0
 62
     7
100
AcDbLine
 10
9.589094
 20
15.284434
 30
0.0
 11
9.823694
 21
15.690773
 31
0.0
  0
LINE
  5
996
100
AcDbEntity
  8
0
 62
     7
100
AcDbLine
 10
9.323138
 20
15.437984
 30
0.0
 11
10.082743
 21
16.753659
 31
0.0
  0
LINE
  5
997
100
AcDbEntity
  8
0
 62
     7
100
AcDbLine
 10
9.323138
 20
15.437984
 30
0.0
 11
9.589094
 21
15.284434
 31
0.0
  0
ARC
  5
99A
100
AcDbEntity
  8
0
 62
     7
100
AcDbCircle
 10
6.103485
 20
17.160482
 30
0.0
 40
1.6737
100
AcDbArc
 50
12.186475
 51
25.95372
  0
ARC
  5
99B
100
AcDbEntity
  8
0
 62
     7
100
AcDbCircle
 10
6.103485
 20
17.160482
 30
0.0
 40
1.4375
100
AcDbArc
 50
92.489553
 51
207.510447
  0
LINE
  5
9BB
100
AcDbEntity
  8
0
 62
     7
100
AcDbLine
 10
7.029135
 20
13.798624
 30
0.0
 11
6.820448
 21
13.225261
 31
0.0
  0
LINE
  5
9BC
100
AcDbEntity
  8
0
 62
     7
100
AcDbLine
 10
7.98768
 20
15.534303
 30
0.0
 11
7.177101
 21
13.307256
 31
0.0
  0
LINE
  5
9BD
100
AcDbEntity
  8
0
 62
     7
100
AcDbLine
 10
8.316289
 20
15.746548
 30
0.0
 11
7.461512
 21
13.398067
 31
0.0
  0
LINE
  5
9BE
100
AcDbEntity
  8
0
 62
     7
100
AcDbLine
 10
8.586348
 20
15.590629
 30
0.0
 11
7.847519
 21
13.560712
 31
0.0
  0
LINE
  5
9BF
100
AcDbEntity
  8
0
 62
     7
100
AcDbLine
 10
8.794059
 20
15.470708
 30
0.0
 11
8.160459
 21
13.729905
 31
0.0
  0
LINE
  5
9C0
100
AcDbEntity
  8
0
 62
     7
100
AcDbLine
 10
9.064118
 20
15.314789
 30
0.0
 11
8.597723
 21
14.033379
 31
0.0
  0
LINE
  5
9C1
100
AcDbEntity
  8
0
 62
     7
100
AcDbLine
 10
9.271829
 20
15.194867
 30
0.0
 11
8.972947
 21
14.373694
 31
0.0
  0
LINE
  5
9D4
100
AcDbEntity
  8
0
 62
     7
100
AcDbLine
 10
9.271829
 20
15.194867
 30
0.0
 11
9.508536
 21
15.058204
 31
0.0
  0
LINE
  5
9D5
100
AcDbEntity
  8
0
 62
     7
100
AcDbLine
 10
8.794059
 20
15.470708
 30
0.0
 11
9.064118
 21
15.314789
 31
0.0
  0
LINE
  5
9D6
100
AcDbEntity
  8
0
 62
     7
100
AcDbLine
 10
8.316289
 20
15.746548
 30
0.0
 11
8.586348
 21
15.590629
 31
0.0
  0
LINE
  5
9D7
100
AcDbEntity
  8
0
 62
     7
100
AcDbLine
 10
7.838519
 20
16.022389
 30
0.0
 11
8.07251
 21
15.887294
 31
0.0
  0
ARC
  5
9E1
100
AcDbEntity
  8
0
 62
     7
100
AcDbCircle
 10
6.103485
 20
17.160482
 30
0.0
 40
1.6737
100
AcDbArc
 50
334.04628
 51
358.104777
  0
LINE
  5
A0B
100
AcDbEntity
  8
0
 62
     7
100
AcDbLine
 10
7.773783
 20
15.163824
 30
0.0
 11
6.221585
 21
13.313985
 31
0.0
  0
LINE
  5
A0C
100
AcDbEntity
  8
0
 62
     7
100
AcDbLine
 10
7.802451
 20
16.043213
 30
0.0
 11
6.221585
 21
14.15921
 31
0.0
  0
LINE
  5
A0D
100
AcDbEntity
  8
0
 62
     7
100
AcDbLine
 10
7.59474
 20
16.163135
 30
0.0
 11
6.221585
 21
14.526672
 31
0.0
  0
LINE
  5
A0F
100
AcDbEntity
  8
0
 62
     7
100
AcDbLine
 10
8.07251
 20
15.887294
 30
0.0
 11
6.221585
 21
13.681447
 31
0.0
  0
LINE
  5
A12
100
AcDbEntity
  8
0
 62
     7
100
AcDbLine
 10
7.029135
 20
13.798624
 30
0.0
 11
6.511147
 21
13.181309
 31
0.0
  0
LINE
  5
A15
100
AcDbEntity
  8
0
 62
     7
100
AcDbLine
 10
6.727625
 20
15.60751
 30
0.0
 11
6.221585
 21
15.004435
 31
0.0
  0
LINE
  5
A16
100
AcDbEntity
  8
0
 62
     7
100
AcDbLine
 10
6.331023
 20
15.502321
 30
0.0
 11
6.221585
 21
15.371897
 31
0.0
  0
ARC
  5
A18
100
AcDbEntity
  8
0
 62
     7
100
AcDbCircle
 10
6.103485
 20
17.160482
 30
0.0
 40
1.6737
100
AcDbArc
 50
274.04628
 51
277.813525
  0
LINE
  5
A1F
100
AcDbEntity
  8
0
 62
     7
100
AcDbLine
 10
7.98768
 20
15.534303
 30
0.0
 11
7.773783
 21
15.163824
 31
0.0
  0
LINE
  5
A22
100
AcDbEntity
  8
0
 62
     7
100
AcDbLine
 10
9.064118
 20
15.314789
 30
0.0
 11
8.794059
 21
15.470708
 31
0.0
  0
ARC
  5
A23
100
AcDbEntity
  8
0
 62
     7
100
AcDbCircle
 10
6.103485
 20
17.160482
 30
0.0
 40
1.6737
100
AcDbArc
 50
291.895223
 51
325.95372
  0
LINE
  5
A25
100
AcDbEntity
  8
0
 62
     7
100
AcDbLine
 10
8.586348
 20
15.590629
 30
0.0
 11
8.316289
 21
15.746548
 31
0.0
  0
LINE
  5
A26
100
AcDbEntity
  8
0
 62
     7
100
AcDbLine
 10
8.07251
 20
15.887294
 30
0.0
 11
7.802451
 21
16.043213
 31
0.0
  0
LINE
  5
A29
100
AcDbEntity
  8
0
 62
     7
100
AcDbLine
 10
7.59474
 20
16.163135
 30
0.0
 11
7.490288
 21
16.22344
 31
0.0
  0
LINE
  5
A2E
100
AcDbEntity
  8
0
 62
     7
100
AcDbLine
 10
5.985385
 20
21.117132
 30
0.0
 11
5.516185
 21
21.117132
 31
0.0
  0
LINE
  5
A2F
100
AcDbEntity
  8
0
 62
     7
100
AcDbLine
 10
9.118582
 20
15.556084
 30
0.0
 11
10.10225
 21
17.259847
 31
0.0
  0
LINE
  5
A30
100
AcDbEntity
  8
0
 62
     7
100
AcDbLine
 10
5.985385
 20
20.030532
 30
0.0
 11
3.317302
 21
20.030532
 31
0.0
  0
LINE
  5
A31
100
AcDbEntity
  8
0
 62
     7
100
AcDbLine
 10
8.852626
 20
15.709634
 30
0.0
 11
10.053656
 21
17.78988
 31
0.0
  0
LINE
  5
A32
100
AcDbEntity
  8
0
 62
     7
100
AcDbLine
 10
9.323138
 20
15.437984
 30
0.0
 11
10.082743
 21
16.753659
 31
0.0
  0
LINE
  5
A33
100
AcDbEntity
  8
0
 62
     7
100
AcDbLine
 10
5.985385
 20
19.487232
 30
0.0
 11
2.849835
 21
19.487232
 31
0.0
  0
ARC
  5
A34
100
AcDbEntity
  8
0
 62
     7
100
AcDbCircle
 10
6.103485
 20
17.160482
 30
0.0
 40
1.6737
100
AcDbArc
 50
94.04628
 51
118.104777
  0
LINE
  5
A35
100
AcDbEntity
  8
0
 62
     7
100
AcDbLine
 10
5.985385
 20
18.943932
 30
0.0
 11
3.250659
 21
18.943932
 31
0.0
  0
LINE
  5
A36
100
AcDbEntity
  8
0
 62
     7
100
AcDbLine
 10
5.985385
 20
19.180132
 30
0.0
 11
2.841548
 21
19.180132
 31
0.0
  0
LINE
  5
A37
100
AcDbEntity
  8
0
 62
     7
100
AcDbLine
 10
5.985385
 20
19.723432
 30
0.0
 11
3.032444
 21
19.723432
 31
0.0
  0
LINE
  5
A38
100
AcDbEntity
  8
0
 62
     7
100
AcDbLine
 10
5.315029
 20
18.636832
 30
0.0
 11
3.782571
 21
18.636832
 31
0.0
  0
LINE
  5
A3A
100
AcDbEntity
  8
0
 62
     7
100
AcDbLine
 10
4.979519
 20
18.400632
 30
0.0
 11
4.191682
 21
18.400632
 31
0.0
  0
ARC
  5
A3B
100
AcDbEntity
  8
0
 62
     7
100
AcDbCircle
 10
6.103485
 20
17.160482
 30
0.0
 40
1.6737
100
AcDbArc
 50
132.186475
 51
145.95372
  0
LINE
  5
A3C
100
AcDbEntity
  8
0
 62
     7
100
AcDbLine
 10
6.221585
 20
19.190464
 30
0.0
 11
8.643612
 21
18.763395
 31
0.0
  0
LINE
  5
A3D
100
AcDbEntity
  8
0
 62
     7
100
AcDbLine
 10
6.221585
 20
19.502301
 30
0.0
 11
9.057367
 21
19.002276
 31
0.0
  0
LINE
  5
A3E
100
AcDbEntity
  8
0
 62
     7
100
AcDbLine
 10
6.997492
 20
19.605332
 30
0.0
 11
9.375598
 21
19.186007
 31
0.0
  0
LINE
  5
A3F
100
AcDbEntity
  8
0
 62
     7
100
AcDbLine
 10
7.136327
 20
18.477489
 30
0.0
 11
7.911626
 21
18.340783
 31
0.0
  0
LINE
  5
A40
100
AcDbEntity
  8
0
 62
     7
100
AcDbLine
 10
7.425725
 20
18.186616
 30
0.0
 11
7.593394
 21
18.157052
 31
0.0
  0
LINE
  5
A41
100
AcDbEntity
  8
0
 62
     7
100
AcDbLine
 10
6.221585
 20
18.95062
 30
0.0
 11
8.325381
 21
18.579664
 31
0.0
  0
ARC
  5
A42
100
AcDbEntity
  8
0
 62
     7
100
AcDbCircle
 10
6.103485
 20
17.160482
 30
0.0
 40
1.6737
100
AcDbArc
 50
34.04628
 51
37.813525
  0
ARC
  5
A43
100
AcDbEntity
  8
0
 62
     7
100
AcDbCircle
 10
6.103485
 20
17.160482
 30
0.0
 40
1.6737
100
AcDbArc
 50
51.895223
 51
85.95372
  0
LINE
  5
A44
100
AcDbEntity
  8
0
 62
     7
100
AcDbLine
 10
5.985385
 20
18.83001
 30
0.0
 11
5.985385
 21
18.943932
 31
0.0
  0
LINE
  5
A45
100
AcDbEntity
  8
0
 62
     7
100
AcDbLine
 10
6.221585
 20
18.95062
 30
0.0
 11
6.221585
 21
18.83001
 31
0.0
  0
LINE
  5
A46
100
AcDbEntity
  8
0
 62
     7
100
AcDbLine
 10
6.221585
 20
20.335475
 30
0.0
 11
8.045964
 21
20.657162
 31
0.0
  0
LINE
  5
A47
100
AcDbEntity
  8
0
 62
     7
100
AcDbLine
 10
6.221585
 20
20.095631
 30
0.0
 11
8.34896
 21
20.470745
 31
0.0
  0
LINE
  5
A48
100
AcDbEntity
  8
0
 62
     7
100
AcDbLine
 10
6.221585
 20
19.783794
 30
0.0
 11
8.682817
 21
20.217775
 31
0.0
  0
LINE
  5
A49
100
AcDbEntity
  8
0
 62
     7
100
AcDbLine
 10
6.569699
 20
19.605332
 30
0.0
 11
8.903668
 21
20.016873
 31
0.0
  0
LINE
  5
A4A
100
AcDbEntity
  8
0
 62
     7
100
AcDbLine
 10
5.985385
 20
20.266732
 30
0.0
 11
5.985385
 21
20.573832
 31
0.0
  0
LINE
  5
A4B
100
AcDbEntity
  8
0
 62
     7
100
AcDbLine
 10
6.569699
 20
19.605332
 30
0.0
 11
6.997492
 21
19.605332
 31
0.0
  0
LINE
  5
A4C
100
AcDbEntity
  8
0
 62
     7
100
AcDbLine
 10
5.985385
 20
19.723432
 30
0.0
 11
5.985385
 21
20.030532
 31
0.0
  0
LINE
  5
A4D
100
AcDbEntity
  8
0
 62
     7
100
AcDbLine
 10
5.985385
 20
19.180132
 30
0.0
 11
5.985385
 21
19.487232
 31
0.0
  0
LINE
  5
A4E
100
AcDbEntity
  8
0
 62
     7
100
AcDbLine
 10
6.221585
 20
19.232112
 30
0.0
 11
6.221585
 21
19.502301
 31
0.0
  0
LINE
  5
A4F
100
AcDbEntity
  8
0
 62
     7
100
AcDbLine
 10
6.221585
 20
19.502301
 30
0.0
 11
6.221585
 21
19.190464
 31
0.0
  0
LINE
  5
A50
100
AcDbEntity
  8
0
 62
     7
100
AcDbLine
 10
6.221585
 20
19.783794
 30
0.0
 11
6.221585
 21
20.095631
 31
0.0
  0
LINE
  5
A51
100
AcDbEntity
  8
0
 62
     7
100
AcDbLine
 10
6.221585
 20
20.095631
 30
0.0
 11
6.221585
 21
19.783794
 31
0.0
  0
LINE
  5
A52
100
AcDbEntity
  8
0
 62
     7
100
AcDbLine
 10
6.221585
 20
20.887156
 30
0.0
 11
7.082183
 21
21.038903
 31
0.0
  0
LINE
  5
A53
100
AcDbEntity
  8
0
 62
     7
100
AcDbLine
 10
6.221585
 20
20.647312
 30
0.0
 11
7.564516
 21
20.884107
 31
0.0
  0
LINE
  5
A54
100
AcDbEntity
  8
0
 62
     7
100
AcDbLine
 10
5.985385
 20
20.810032
 30
0.0
 11
5.985385
 21
21.117132
 31
0.0
  0
LINE
  5
A55
100
AcDbEntity
  8
0
 62
     7
100
AcDbLine
 10
6.221585
 20
20.335475
 30
0.0
 11
6.221585
 21
20.647312
 31
0.0
  0
LINE
  5
A56
100
AcDbEntity
  8
0
 62
     7
100
AcDbLine
 10
6.221585
 20
20.647312
 30
0.0
 11
6.221585
 21
20.335475
 31
0.0
  0
LINE
  5
A57
100
AcDbEntity
  8
0
 62
     7
100
AcDbLine
 10
6.221585
 20
20.887156
 30
0.0
 11
6.221585
 21
21.160482
 31
0.0
  0
LINE
  5
A58
100
AcDbEntity
  8
0
 62
     7
100
AcDbLine
 10
8.552114
 20
19.643047
 30
0.0
 11
9.345718
 21
19.503114
 31
0.0
  0
LINE
  5
A59
100
AcDbEntity
  8
0
 62
     7
100
AcDbLine
 10
8.552114
 20
19.643047
 30
0.0
 11
9.153004
 21
19.749001
 31
0.0
  0
LINE
  5
A5A
100
AcDbEntity
  8
0
 62
     7
100
AcDbLine
 10
2.735975
 20
15.079879
 30
0.0
 11
2.970575
 21
14.67354
 31
0.0
  0
LINE
  5
A5B
100
AcDbEntity
  8
0
 62
     7
100
AcDbLine
 10
3.206487
 20
15.351529
 30
0.0
 11
4.190155
 21
13.647766
 31
0.0
  0
LINE
  5
A5C
100
AcDbEntity
  8
0
 62
     7
100
AcDbLine
 10
3.676998
 20
15.623179
 30
0.0
 11
5.01104
 21
13.312552
 31
0.0
  0
LINE
  5
A5D
100
AcDbEntity
  8
0
 62
     7
100
AcDbLine
 10
3.472443
 20
15.505079
 30
0.0
 11
4.673474
 21
13.424833
 31
0.0
  0
LINE
  5
A5E
100
AcDbEntity
  8
0
 62
     7
100
AcDbLine
 10
3.001932
 20
15.233429
 30
0.0
 11
3.761537
 21
13.917754
 31
0.0
  0
LINE
  5
A5F
100
AcDbEntity
  8
0
 62
     7
100
AcDbLine
 10
4.14751
 20
15.894829
 30
0.0
 11
5.715285
 21
13.179364
 31
0.0
  0
ARC
  5
A60
100
AcDbEntity
  8
0
 62
     7
100
AcDbCircle
 10
6.103485
 20
17.160482
 30
0.0
 40
1.6737
100
AcDbArc
 50
214.04628
 51
238.104777
  0
LINE
  5
A61
100
AcDbEntity
  8
0
 62
     7
100
AcDbLine
 10
4.618022
 20
16.166479
 30
0.0
 11
5.985385
 21
13.798137
 31
0.0
  0
LINE
  5
A62
100
AcDbEntity
  8
0
 62
     7
100
AcDbLine
 10
4.413466
 20
16.048379
 30
0.0
 11
5.985385
 21
13.325737
 31
0.0
  0
LINE
  5
A63
100
AcDbEntity
  8
0
 62
     7
100
AcDbLine
 10
3.942955
 20
15.776729
 30
0.0
 11
5.419425
 21
13.219408
 31
0.0
  0
LINE
  5
A64
100
AcDbEntity
  8
0
 62
     7
100
AcDbLine
 10
5.219156
 20
15.739484
 30
0.0
 11
5.985385
 21
14.412337
 31
0.0
  0
LINE
  5
A66
100
AcDbEntity
  8
0
 62
     7
100
AcDbLine
 10
5.591466
 20
15.567024
 30
0.0
 11
5.985385
 21
14.884737
 31
0.0
  0
ARC
  5
A67
100
AcDbEntity
  8
0
 62
     7
100
AcDbCircle
 10
6.103485
 20
17.160482
 30
0.0
 40
1.6737
100
AcDbArc
 50
252.186475
 51
265.95372
  0
LINE
  5
A68
100
AcDbEntity
  8
0
 62
     7
100
AcDbLine
 10
4.286418
 20
16.247768
 30
0.0
 11
3.445257
 21
18.55884
 31
0.0
  0
LINE
  5
A69
100
AcDbEntity
  8
0
 62
     7
100
AcDbLine
 10
4.016359
 20
16.091849
 30
0.0
 11
3.031502
 21
18.797721
 31
0.0
  0
LINE
  5
A6A
100
AcDbEntity
  8
0
 62
     7
100
AcDbLine
 10
3.539179
 20
16.71229
 30
0.0
 11
2.713271
 21
18.981452
 31
0.0
  0
LINE
  5
A6B
100
AcDbEntity
  8
0
 62
     7
100
AcDbLine
 10
4.446502
 20
17.396446
 30
0.0
 11
4.177243
 21
18.136227
 31
0.0
  0
LINE
  5
A6C
100
AcDbEntity
  8
0
 62
     7
100
AcDbLine
 10
4.553706
 20
17.792508
 30
0.0
 11
4.495475
 21
17.952496
 31
0.0
  0
LINE
  5
A6D
100
AcDbEntity
  8
0
 62
     7
100
AcDbLine
 10
4.494129
 20
16.36769
 30
0.0
 11
3.763489
 21
18.375109
 31
0.0
  0
ARC
  5
A6E
100
AcDbEntity
  8
0
 62
     7
100
AcDbCircle
 10
6.103485
 20
17.160482
 30
0.0
 40
1.6737
100
AcDbArc
 50
154.04628
 51
157.813525
  0
ARC
  5
A6F
100
AcDbEntity
  8
0
 62
     7
100
AcDbCircle
 10
6.103485
 20
17.160482
 30
0.0
 40
1.6737
100
AcDbArc
 50
171.895223
 51
205.95372
  0
LINE
  5
A70
100
AcDbEntity
  8
0
 62
     7
100
AcDbLine
 10
4.716681
 20
16.22344
 30
0.0
 11
4.618022
 21
16.166479
 31
0.0
  0
LINE
  5
A71
100
AcDbEntity
  8
0
 62
     7
100
AcDbLine
 10
4.494129
 20
16.36769
 30
0.0
 11
4.598581
 21
16.427995
 31
0.0
  0
LINE
  5
A72
100
AcDbEntity
  8
0
 62
     7
100
AcDbLine
 10
3.29481
 20
15.675263
 30
0.0
 11
2.104031
 21
17.094378
 31
0.0
  0
LINE
  5
A73
100
AcDbEntity
  8
0
 62
     7
100
AcDbLine
 10
3.502521
 20
15.795185
 30
0.0
 11
2.113975
 21
17.449989
 31
0.0
  0
LINE
  5
A74
100
AcDbEntity
  8
0
 62
     7
100
AcDbLine
 10
3.77258
 20
15.951103
 30
0.0
 11
2.166124
 21
17.865602
 31
0.0
  0
LINE
  5
A75
100
AcDbEntity
  8
0
 62
     7
100
AcDbLine
 10
3.753075
 20
16.34181
 30
0.0
 11
2.229685
 21
18.157316
 31
0.0
  0
LINE
  5
A76
100
AcDbEntity
  8
0
 62
     7
100
AcDbLine
 10
3.472443
 20
15.505079
 30
0.0
 11
3.206487
 21
15.351529
 31
0.0
  0
LINE
  5
A77
100
AcDbEntity
  8
0
 62
     7
100
AcDbLine
 10
3.753075
 20
16.34181
 30
0.0
 11
3.539179
 21
16.71229
 31
0.0
  0
LINE
  5
A78
100
AcDbEntity
  8
0
 62
     7
100
AcDbLine
 10
3.942955
 20
15.776729
 30
0.0
 11
3.676998
 21
15.623179
 31
0.0
  0
LINE
  5
A79
100
AcDbEntity
  8
0
 62
     7
100
AcDbLine
 10
4.413466
 20
16.048379
 30
0.0
 11
4.14751
 21
15.894829
 31
0.0
  0
LINE
  5
A7A
100
AcDbEntity
  8
0
 62
     7
100
AcDbLine
 10
4.25035
 20
16.226944
 30
0.0
 11
4.016359
 21
16.091849
 31
0.0
  0
LINE
  5
A7B
100
AcDbEntity
  8
0
 62
     7
100
AcDbLine
 10
4.016359
 20
16.091849
 30
0.0
 11
4.286418
 21
16.247768
 31
0.0
  0
LINE
  5
A7C
100
AcDbEntity
  8
0
 62
     7
100
AcDbLine
 10
3.77258
 20
15.951103
 30
0.0
 11
3.502521
 21
15.795185
 31
0.0
  0
LINE
  5
A7D
100
AcDbEntity
  8
0
 62
     7
100
AcDbLine
 10
3.502521
 20
15.795185
 30
0.0
 11
3.77258
 21
15.951103
 31
0.0
  0
LINE
  5
A7E
100
AcDbEntity
  8
0
 62
     7
100
AcDbLine
 10
2.81704
 20
15.399422
 30
0.0
 11
2.255324
 21
16.068849
 31
0.0
  0
LINE
  5
A7F
100
AcDbEntity
  8
0
 62
     7
100
AcDbLine
 10
3.024751
 20
15.519344
 30
0.0
 11
2.148215
 21
16.563959
 31
0.0
  0
LINE
  5
A80
100
AcDbEntity
  8
0
 62
     7
100
AcDbLine
 10
3.001932
 20
15.233429
 30
0.0
 11
2.735975
 21
15.079879
 31
0.0
  0
LINE
  5
A81
100
AcDbEntity
  8
0
 62
     7
100
AcDbLine
 10
3.29481
 20
15.675263
 30
0.0
 11
3.024751
 21
15.519344
 31
0.0
  0
LINE
  5
A82
100
AcDbEntity
  8
0
 62
     7
100
AcDbLine
 10
3.024751
 20
15.519344
 30
0.0
 11
3.29481
 21
15.675263
 31
0.0
  0
LINE
  5
A83
100
AcDbEntity
  8
0
 62
     7
100
AcDbLine
 10
2.81704
 20
15.399422
 30
0.0
 11
2.580333
 21
15.262759
 31
0.0
  0
LINE
  5
A84
100
AcDbEntity
  8
0
 62
     7
100
AcDbLine
 10
2.729205
 20
18.039774
 30
0.0
 11
2.453589
 21
18.797022
 31
0.0
  0
LINE
  5
A85
100
AcDbEntity
  8
0
 62
     7
100
AcDbLine
 10
2.729205
 20
18.039774
 30
0.0
 11
2.337002
 21
18.507184
 31
0.0
  0
LINE
  5
A8A
100
AcDbEntity
  8
0
 62
     7
100
AcDbLine
 10
9.483521
 20
18.975576
 30
0.0
 11
9.625126
 21
19.057332
 31
0.0
  0
LINE
  5
A8B
100
AcDbEntity
  8
0
 62
     7
100
AcDbLine
 10
8.542498
 20
18.432276
 30
0.0
 11
9.074411
 21
18.739376
 31
0.0
  0
LINE
  5
A8C
100
AcDbEntity
  8
0
 62
     7
100
AcDbLine
 10
7.608388
 20
17.892968
 30
0.0
 11
8.133387
 21
18.196076
 31
0.0
  0
LINE
  5
A8D
100
AcDbEntity
  8
0
 62
     7
100
AcDbLine
 10
7.490288
 20
18.097523
 30
0.0
 11
7.593394
 21
18.157052
 31
0.0
  0
LINE
  5
A8E
100
AcDbEntity
  8
0
 62
     7
100
AcDbLine
 10
7.911626
 20
18.340783
 30
0.0
 11
8.325381
 21
18.579664
 31
0.0
  0
LINE
  5
A8F
100
AcDbEntity
  8
0
 62
     7
100
AcDbLine
 10
8.643612
 20
18.763395
 30
0.0
 11
9.057367
 21
19.002276
 31
0.0
  0
LINE
  5
A90
100
AcDbEntity
  8
0
 62
     7
100
AcDbLine
 10
9.375598
 20
19.186007
 30
0.0
 11
9.507026
 21
19.261887
 31
0.0
  0
LINE
  5
A95
100
AcDbEntity
  8
0
 62
     7
100
AcDbLine
 10
5.985385
 20
20.266732
 30
0.0
 11
3.583324
 21
20.266732
 31
0.0
  0
LINE
  5
A96
100
AcDbEntity
  8
0
 62
     7
100
AcDbLine
 10
5.985385
 20
20.573832
 30
0.0
 11
4.018049
 21
20.573832
 31
0.0
  0
LINE
  5
A97
100
AcDbEntity
  8
0
 62
     7
100
AcDbLine
 10
5.985385
 20
20.810032
 30
0.0
 11
4.466174
 21
20.810032
 31
0.0
  0
LINE
  5
A9A
100
AcDbEntity
  8
0
 62
     7
100
AcDbLine
 10
6.221585
 20
13.313985
 30
0.0
 11
6.221585
 21
13.162226
 31
0.0
  0
LINE
  5
A9B
100
AcDbEntity
  8
0
 62
     7
100
AcDbLine
 10
6.221585
 20
14.15921
 30
0.0
 11
6.221585
 21
13.681447
 31
0.0
  0
LINE
  5
A9C
100
AcDbEntity
  8
0
 62
     7
100
AcDbLine
 10
6.221585
 20
15.004435
 30
0.0
 11
6.221585
 21
14.526672
 31
0.0
  0
LINE
  5
A9D
100
AcDbEntity
  8
0
 62
     7
100
AcDbLine
 10
6.221585
 20
15.490954
 30
0.0
 11
6.221585
 21
15.371897
 31
0.0
  0
LINE
  5
A9E
100
AcDbEntity
  8
0
 62
     7
100
AcDbLine
 10
5.985385
 20
15.490954
 30
0.0
 11
5.985385
 21
14.884737
 31
0.0
  0
LINE
  5
A9F
100
AcDbEntity
  8
0
 62
     7
100
AcDbLine
 10
5.985385
 20
14.412337
 30
0.0
 11
5.985385
 21
13.798137
 31
0.0
  0
LINE
  5
AA0
100
AcDbEntity
  8
0
 62
     7
100
AcDbLine
 10
5.985385
 20
13.325737
 30
0.0
 11
5.985385
 21
13.162226
 31
0.0
  0
LINE
  5
AA7
100
AcDbEntity
  8
0
 62
     7
100
AcDbLine
 10
2.713271
 20
18.981452
 30
0.0
 11
2.581843
 21
19.057332
 31
0.0
  0
ARC
  5
AA8
100
AcDbEntity
  8
0
 62
     7
100
AcDbCircle
 10
6.103485
 20
17.160482
 30
0.0
 40
4.0
100
AcDbArc
 50
151.691904
 51
155.849488
  0
LINE
  5
AA9
100
AcDbEntity
  8
0
 62
     7
100
AcDbLine
 10
3.445257
 20
18.55884
 30
0.0
 11
3.031502
 21
18.797721
 31
0.0
  0
LINE
  5
AAA
100
AcDbEntity
  8
0
 62
     7
100
AcDbLine
 10
4.177243
 20
18.136227
 30
0.0
 11
3.763489
 21
18.375109
 31
0.0
  0
LINE
  5
AAB
100
AcDbEntity
  8
0
 62
     7
100
AcDbLine
 10
4.598581
 20
17.892968
 30
0.0
 11
4.495475
 21
17.952496
 31
0.0
  0
LINE
  5
AAC
100
AcDbEntity
  8
0
 62
     7
100
AcDbLine
 10
4.716681
 20
18.097523
 30
0.0
 11
4.191682
 21
18.400632
 31
0.0
  0
LINE
  5
AAD
100
AcDbEntity
  8
0
 62
     7
100
AcDbLine
 10
3.782571
 20
18.636832
 30
0.0
 11
3.250659
 21
18.943932
 31
0.0
  0
LINE
  5
AAE
100
AcDbEntity
  8
0
 62
     7
100
AcDbLine
 10
2.841548
 20
19.180132
 30
0.0
 11
2.699943
 21
19.261887
 31
0.0
  0
ARC
  5
AB1
100
AcDbEntity
  8
0
 62
     7
100
AcDbCircle
 10
6.103485
 20
17.160482
 30
0.0
 40
4.0
100
AcDbArc
 50
160.325544
 51
165.56932
  0
ARC
  5
AB2
100
AcDbEntity
  8
0
 62
     7
100
AcDbCircle
 10
6.103485
 20
17.160482
 30
0.0
 40
4.0
100
AcDbArc
 50
169.846835
 51
175.849488
  0
ARC
  5
AB3
100
AcDbEntity
  8
0
 62
     7
100
AcDbCircle
 10
6.103485
 20
17.160482
 30
0.0
 40
4.0
100
AcDbArc
 50
180.94691
 51
188.576551
  0
ARC
  5
AB4
100
AcDbEntity
  8
0
 62
     7
100
AcDbCircle
 10
6.103485
 20
17.160482
 30
0.0
 40
4.0
100
AcDbArc
 50
195.8374
 51
208.308096
  0
ARC
  5
AB6
100
AcDbEntity
  8
0
 62
     7
100
AcDbCircle
 10
6.103485
 20
17.160482
 30
0.0
 40
4.0
100
AcDbArc
 50
218.442969
 51
234.1626
  0
ARC
  5
AB8
100
AcDbEntity
  8
0
 62
     7
100
AcDbCircle
 10
6.103485
 20
17.160482
 30
0.0
 40
4.0
100
AcDbArc
 50
241.423449
 51
249.05309
  0
ARC
  5
AB9
100
AcDbEntity
  8
0
 62
     7
100
AcDbCircle
 10
6.103485
 20
17.160482
 30
0.0
 40
4.0
100
AcDbArc
 50
254.150512
 51
260.153165
  0
ARC
  5
ABA
100
AcDbEntity
  8
0
 62
     7
100
AcDbCircle
 10
6.103485
 20
17.160482
 30
0.0
 40
4.0
100
AcDbArc
 50
264.43068
 51
268.308096
  0
ARC
  5
ABC
100
AcDbEntity
  8
0
 62
     7
100
AcDbCircle
 10
6.103485
 20
17.160482
 30
0.0
 40
4.0
100
AcDbArc
 50
280.325544
 51
285.56932
  0
ARC
  5
ABD
100
AcDbEntity
  8
0
 62
     7
100
AcDbCircle
 10
6.103485
 20
17.160482
 30
0.0
 40
4.0
100
AcDbArc
 50
289.846835
 51
295.849488
  0
ARC
  5
ABE
100
AcDbEntity
  8
0
 62
     7
100
AcDbCircle
 10
6.103485
 20
17.160482
 30
0.0
 40
4.0
100
AcDbArc
 50
300.94691
 51
308.576551
  0
ARC
  5
ABF
100
AcDbEntity
  8
0
 62
     7
100
AcDbCircle
 10
6.103485
 20
17.160482
 30
0.0
 40
4.0
100
AcDbArc
 50
315.8374
 51
328.308096
  0
ARC
  5
AC0
100
AcDbEntity
  8
0
 62
     7
100
AcDbCircle
 10
6.103485
 20
17.160482
 30
0.0
 40
4.0
100
AcDbArc
 50
338.442969
 51
354.1626
  0
ARC
  5
AC1
100
AcDbEntity
  8
0
 62
     7
100
AcDbCircle
 10
6.103485
 20
17.160482
 30
0.0
 40
4.0
100
AcDbArc
 50
1.423449
 51
9.05309
  0
ARC
  5
AC2
100
AcDbEntity
  8
0
 62
     7
100
AcDbCircle
 10
6.103485
 20
17.160482
 30
0.0
 40
4.0
100
AcDbArc
 50
14.150512
 51
20.153165
  0
ARC
  5
AC3
100
AcDbEntity
  8
0
 62
     7
100
AcDbCircle
 10
6.103485
 20
17.160482
 30
0.0
 40
4.0
100
AcDbArc
 50
24.43068
 51
28.308096
  0
ARC
  5
AC4
100
AcDbEntity
  8
0
 62
     7
100
AcDbCircle
 10
6.103485
 20
17.160482
 30
0.0
 40
4.0
100
AcDbArc
 50
31.691904
 51
35.849488
  0
ARC
  5
AC7
100
AcDbEntity
  8
0
 62
     7
100
AcDbCircle
 10
6.103485
 20
17.160482
 30
0.0
 40
4.0
100
AcDbArc
 50
40.325544
 51
45.56932
  0
ARC
  5
AC9
100
AcDbEntity
  8
0
 62
     7
100
AcDbCircle
 10
6.103485
 20
17.160482
 30
0.0
 40
4.0
100
AcDbArc
 50
49.846835
 51
55.849488
  0
ARC
  5
ACA
100
AcDbEntity
  8
0
 62
     7
100
AcDbCircle
 10
6.103485
 20
17.160482
 30
0.0
 40
4.0
100
AcDbArc
 50
60.94691
 51
68.576551
  0
ARC
  5
ACB
100
AcDbEntity
  8
0
 62
     7
100
AcDbCircle
 10
6.103485
 20
17.160482
 30
0.0
 40
4.0
100
AcDbArc
 50
75.8374
 51
88.308096
  0
ARC
  5
ACC
100
AcDbEntity
  8
0
 62
     7
100
AcDbCircle
 10
6.103485
 20
17.160482
 30
0.0
 40
4.0
100
AcDbArc
 50
98.442969
 51
114.1626
  0
ARC
  5
ACE
100
AcDbEntity
  8
0
 62
     7
100
AcDbCircle
 10
6.103485
 20
17.160482
 30
0.0
 40
4.0
100
AcDbArc
 50
121.423449
 51
129.05309
  0
ARC
  5
ACF
100
AcDbEntity
  8
0
 62
     7
100
AcDbCircle
 10
6.103485
 20
17.160482
 30
0.0
 40
4.0
100
AcDbArc
 50
134.150512
 51
140.153165
  0
ARC
  5
AD0
100
AcDbEntity
  8
0
 62
     7
100
AcDbCircle
 10
6.103485
 20
17.160482
 30
0.0
 40
4.0
100
AcDbArc
 50
144.43068
 51
148.308096
  0
CIRCLE
  5
AE2
100
AcDbEntity
  8
0
100
AcDbCircle
 10
6.103485
 20
21.347982
 30
0.0
 40
0.075
  0
ARC
  5
AE6
100
AcDbEntity
  8
0
100
AcDbCircle
 10
6.103485
 20
17.160482
 30
0.0
 40
1.5556
100
AcDbArc
 50
207.510447
 51
212.489553
  0
LINE
  5
AE9
100
AcDbEntity
  8
0
100
AcDbLine
 10
4.890969
 20
16.388335
 30
0.0
 11
4.791352
 21
16.324898
 31
0.0
  0
LINE
  5
AEA
100
AcDbEntity
  8
0
100
AcDbLine
 10
4.828528
 20
16.496486
 30
0.0
 11
4.723781
 21
16.441934
 31
0.0
  0
LINE
  5
AEC
100
AcDbEntity
  8
0
100
AcDbLine
 10
6.041044
 20
18.596625
 30
0.0
 11
6.035914
 21
18.714613
 31
0.0
  0
LINE
  5
AED
100
AcDbEntity
  8
0
100
AcDbLine
 10
6.165926
 20
18.596625
 30
0.0
 11
6.171055
 21
18.714613
 31
0.0
  0
LINE
  5
AEE
100
AcDbEntity
  8
0
100
AcDbLine
 10
7.316001
 20
16.388335
 30
0.0
 11
7.415617
 21
16.324898
 31
0.0
  0
LINE
  5
AEF
100
AcDbEntity
  8
0
100
AcDbLine
 10
7.378442
 20
16.496486
 30
0.0
 11
7.483188
 21
16.441934
 31
0.0
  0
ARC
  5
AF0
100
AcDbEntity
  8
0
 62
     7
100
AcDbCircle
 10
6.103485
 20
17.160482
 30
0.0
 40
1.4375
100
AcDbArc
 50
332.489553
 51
87.510447
  0
ARC
  5
AF1
100
AcDbEntity
  8
0
 62
     7
100
AcDbCircle
 10
6.103485
 20
17.160482
 30
0.0
 40
1.4375
100
AcDbArc
 50
212.489553
 51
327.510447
  0
ARC
  5
AF2
100
AcDbEntity
  8
0
100
AcDbCircle
 10
6.103485
 20
17.160482
 30
0.0
 40
1.5556
100
AcDbArc
 50
87.510447
 51
92.489553
  0
ARC
  5
AF3
100
AcDbEntity
  8
0
100
AcDbCircle
 10
6.103485
 20
17.160482
 30
0.0
 40
1.5556
100
AcDbArc
 50
327.510447
 51
332.489553
  0
CIRCLE
  5
AFF
100
AcDbEntity
  8
0
100
AcDbCircle
 10
6.103485
 20
17.160482
 30
0.0
 40
4.375
  0
CIRCLE
  5
B03
100
AcDbEntity
  8
0
100
AcDbCircle
 10
2.477003
 20
15.066732
 30
0.0
 40
0.075
  0
CIRCLE
  5
B04
100
AcDbEntity
  8
0
100
AcDbCircle
 10
9.729966
 20
15.066732
 30
0.0
 40
0.075
  0
TEXT
  5
B0A
100
AcDbEntity
  8
0
100
AcDbText
 10
-2.086044
 20
22.340253
 30
0.0
 40
0.25
  1
This design is copyright 2016 by C.Y. Tan and is released under
100
AcDbText
  0
TEXT
  5
B0B
100
AcDbEntity
  8
0
100
AcDbText
 10
-2.086044
 20
21.923586
 30
0.0
 40
0.25
  1
the Creative Commons Attribute ShareAlike 3.0 Unported License
100
AcDbText
  0
LINE
  5
B0E
100
AcDbEntity
  8
0
100
AcDbLine
 10
-2.33725
 20
20.27141
 30
0.0
 11
-1.33725
 21
20.27141
 31
0.0
  0
LINE
  5
B0F
100
AcDbEntity
  8
0
100
AcDbLine
 10
-1.33725
 20
20.27141
 30
0.0
 11
-1.33725
 21
19.27141
 31
0.0
  0
LINE
  5
B10
100
AcDbEntity
  8
0
100
AcDbLine
 10
-1.33725
 20
19.27141
 30
0.0
 11
-2.33725
 21
19.27141
 31
0.0
  0
LINE
  5
B11
100
AcDbEntity
  8
0
100
AcDbLine
 10
-2.33725
 20
19.27141
 30
0.0
 11
-2.33725
 21
20.27141
 31
0.0
  0
TEXT
  5
B12
100
AcDbEntity
  8
0
100
AcDbText
 10
-3.005129
 20
18.643327
 30
0.0
 40
0.25
  1
1 inch square
100
AcDbText
  0
ENDSEC
  0
SECTION
  2
OBJECTS
  0
DICTIONARY
  5
C
100
AcDbDictionary
  3
ACAD_GROUP
350
D
  3
ACAD_MLINESTYLE
350
1B
  0
DICTIONARY
  5
D
102
{ACAD_REACTORS
330
C
102
}
100
AcDbDictionary
  0
DICTIONARY
  5
1B
102
{ACAD_REACTORS
330
C
102
}
100
AcDbDictionary
  3
STANDARD
350
1C
  0
MLINESTYLE
  5
1C
102
{ACAD_REACTORS
330
1B
102
}
100
AcDbMlineStyle
  2
STANDARD
 70
     0
  3

 62
   256
 51
90.0
 52
90.0
 71
     2
 49
0.5
 62
   256
  6
BYLAYER
 49
-0.5
 62
   256
  6
BYLAYER
  0
ENDSEC
  0
EOF
